<svg width="32" height="32" viewBox="0 0 32 32" fill="none" xmlns="http://www.w3.org/2000/svg">
<path d="M3.26667 8.57437L15.981 1.1577L28.6952 8.57437V23.4256L15.981 30.8423L3.26667 23.4256V8.57437Z" fill="#151136" stroke="#F2BF43" stroke-width="2"/>
<path fill-rule="evenodd" clip-rule="evenodd" d="M10.4533 22.8383V7.95833H15.6654C17.4709 7.95833 18.8404 8.3041 19.7738 8.99564C20.7072 9.68718 21.1739 10.7006 21.1739 12.036C21.1739 12.765 20.9865 13.4072 20.6118 13.9625C20.2371 14.5177 19.7159 14.9248 19.0482 15.1837C19.8112 15.3745 20.4125 15.7594 20.852 16.3386C21.2914 16.9177 21.5111 17.6262 21.5111 18.4643C21.5111 19.895 21.0546 20.9783 20.1417 21.7142C19.2287 22.45 17.9274 22.8247 16.2377 22.8383H10.4533ZM13.5193 16.359V20.3754H16.1457C16.8679 20.3754 17.4317 20.2033 17.8371 19.8593C18.2425 19.5152 18.4452 19.04 18.4452 18.4336C18.4452 17.071 17.74 16.3794 16.3297 16.359H13.5193ZM13.5193 14.1924H15.788C17.3347 14.1651 18.1079 13.5486 18.1079 12.3426C18.1079 11.6681 17.9121 11.1827 17.5203 10.8863C17.1285 10.5899 16.5103 10.4417 15.6654 10.4417H13.5193V14.1924Z" fill="#F2BF43"/>
</svg>
